<svg version="1.2" baseProfile="tiny" viewBox="0 0 45.500 40.000" xmlns:xlink="http://www.w3.org/1999/xlink" xmlns="http://www.w3.org/2000/svg">
<path style="fill:#ffffff;" d="M44.089,37.135L23.729,1.688c-0.185-0.32-0.524-0.518-0.894-0.519c-0.001,0-0.002,0-0.003,0    c-0.368,0-0.709,0.196-0.893,0.515L1.309,37.279c-0.186,0.32-0.186,0.714-0.001,1.034c0.185,0.319,0.525,0.517,0.895,0.517h41.076    c0.007,0,0.014,0,0.018,0c0.57,0,1.034-0.462,1.034-1.032C44.33,37.545,44.239,37.315,44.089,37.135z M3.995,36.766l10.908-18.82    l1.038-1.79L22.829,4.27l6.828,11.887l0.584,1.019l11.253,19.591H3.995z M14.518,26.681c0-0.375,0.534-1.754,0.596-1.754    c0.048,0,0.564,1.379,0.564,1.754c0,0.373-0.26,0.677-0.581,0.677C14.778,27.358,14.518,27.054,14.518,26.681z M14.367,30.169    c0-0.374,0.532-1.755,0.595-1.755c0.048,0,0.563,1.381,0.563,1.755c0,0.373-0.26,0.677-0.581,0.677    C14.627,30.846,14.367,30.542,14.367,30.169z M16.15,31.429h2.883v1.92H9.577v-1.92h4.374c0,0.042,0,0.083,0,0.126    c0,0.063,0.014,0.103,0.026,0.151c0.014,0.055,0.05,0.093,0.05,0.15c0,0.074,0.134,0.053,0.177,0.053    c0.053,0,0.081,0.032,0.102,0.075c0.023,0.045,0.056,0.087,0.076,0.126c0.022,0.045,0.004,0.085,0.025,0.127    c0.029,0.054,0.094,0.076,0.152,0.076c0.045,0,0.091,0.048,0.126,0.075c0.029,0.022,0.116,0,0.151,0c0.06,0,0.118,0,0.177,0    c0.051,0,0.065-0.072,0.076-0.102c0.027-0.066,0.093-0.12,0.126-0.177c0.025-0.039,0.083-0.067,0.127-0.102    c0.052-0.04,0.11-0.05,0.176-0.05c0.07,0,0.134,0,0.203,0c0.028,0,0.087-0.084,0.101-0.103c0.03-0.039,0.117-0.065,0.151-0.1    c0.053-0.053,0.083-0.128,0.102-0.202C16.086,31.508,16.129,31.474,16.15,31.429z M21.701,22.84l-5.816-0.854l0.033-0.174    l-0.413-0.098l-0.401,2.683l0.414,0.052l0.031-0.229l5.759,0.735l0.037-0.003c0.479-0.005,0.905-0.358,1.035-0.858    c0.06-0.229,0.038-0.49-0.061-0.715C22.214,23.138,22.016,22.954,21.701,22.84z M21.598,23.248    c0.123,0.051,0.217,0.125,0.283,0.234l-5.265,0.45l-1.011-0.123l0.219-1.387L21.598,23.248z M24.61,16.878l-0.404,0.134l0.048,0.17    l-5.769,1.351c-0.258,0.132-0.439,0.332-0.524,0.582c-0.079,0.231-0.078,0.492,0,0.718c0.163,0.46,0.575,0.77,1.025,0.77    l0.116-0.005l5.676-1.219l0.053,0.228l0.405-0.089L24.61,16.878z M23.71,19.18h-5.309c0.058-0.111,0.143-0.194,0.249-0.251    l5.701-1.319l0.336,1.365L23.71,19.18z M24.808,22.182c0-0.374,0.535-1.755,0.597-1.755c0.048,0,0.563,1.381,0.563,1.755    c0,0.373-0.261,0.677-0.58,0.677C25.067,22.859,24.808,22.555,24.808,22.182z M24.758,26.581c0-0.374,0.534-1.755,0.597-1.755    c0.048,0,0.563,1.381,0.563,1.755s-0.26,0.677-0.58,0.677C25.019,27.257,24.758,26.955,24.758,26.581z M22.953,28.17    c0-0.226,0.322-1.06,0.36-1.06c0.029,0,0.339,0.834,0.339,1.06s-0.157,0.408-0.35,0.408S22.953,28.396,22.953,28.17z     M35.391,29.534v4.75c-1.953,0.958-5.026,0.939-7.654,0.504c-0.009,0-0.02,0-0.028-0.001c-0.684-0.069-1.322-0.069-1.322-0.069    h-3.067c-0.293,0-0.51-0.241-0.51-0.535s0.217-0.508,0.51-0.508h3.798c0,0,0.409-0.002,0.458-0.142c0-0.003,0.003-0.006,0.003-0.01    c0.03-0.14-0.405-0.153-0.405-0.153h-5.787c-0.301,0-0.557-0.229-0.557-0.533s0.256-0.558,0.557-0.558h4.674l-0.001-0.01    c0,0,0.42,0,0.463-0.146c0.041-0.146-0.409-0.158-0.409-0.158l-0.084-0.02h-5.2c-0.334,0-0.61-0.249-0.61-0.583    s0.276-0.61,0.61-0.61h6.059c0.113-0.016,0.233-0.049,0.255-0.117c0.028-0.089-0.157-0.121-0.286-0.135h-5.062    c-0.349,0-0.636-0.287-0.636-0.639c0-0.347,0.287-0.608,0.636-0.608h1.964c0.023,0.204,0.191,0.365,0.402,0.365    c0.21,0,0.378-0.161,0.402-0.365h0.213c0.098,0.289,0.363,0.5,0.686,0.5c0.321,0,0.587-0.211,0.685-0.5h1.811    c0.089,0,0.233-0.112,0.084-0.177c-0.517-0.198-1.047-0.328-1.519-0.736c-0.138-0.178-0.276-0.354-0.333-0.61    c-0.052-0.206,0.022-0.441,0.325-0.462c0.362-0.001,1.098,0.191,1.259,0.292c0.294-0.059,0.329-0.074,0.63-0.008    C30.814,28.031,33.213,28.54,35.391,29.534z"/>
</svg>