<?xml version="1.0"?><svg version="1.2" baseProfile="tiny-ps" viewBox="0 0 900 900" xmlns="http://www.w3.org/2000/svg" xmlns:xlink="http://www.w3.org/1999/xlink"><title>google</title><g><g fill="#fbbd05" transform="matrix(.1 0 0 -.1 0 900)"><path d="M4300 7894c-19-2-84-9-145-15-555-55-1121-266-1580-588-376-263-722-634-959-1026-262-433-413-883-471-1405l-15-135v-403l15-138c45-431 151-794 342-1174l82-165 88-137c554-863 1431-1415 2458-1545l140-17h270l270 1 145 17c1098 132 1943 691 2421 1601 234 446 353 912 388 1530l9 150-9 145c-11 183-26 326-46 458l-16 102H4510l2-657 3-658 918-3 917-2-6-28c-64-291-165-501-340-713-245-296-597-494-1034-583l-125-26-167-12-166-12-149 12-148 12-100 21c-55 11-154 38-220 60l-120 39-130 64c-226 110-385 227-571 417-311 321-506 720-568 1167l-16 113v324l15 104c51 358 181 676 398 971l70 95 106 108c185 189 356 313 584 422l132 63 110 35c61 19 155 45 210 56l100 21 152 12 153 11 143-11 142-11 105-21c58-12 148-35 200-52l95-30 131-62c151-73 272-150 394-252l87-72 474 475 474 474-45 40c-519 462-1111 729-1810 815l-125 15-225 4c-124 2-241 1-260-1z"/></g><g fill="#6da2f8" transform="matrix(.1 0 0 -.1 0 900)"><path d="M4305 7894c-22-2-89-9-150-15-478-48-967-210-1380-459-240-145-417-282-619-479-258-252-455-511-621-815l-47-88 8-7c5-5 142-111 304-237 162-125 407-315 543-421 137-106 250-193 252-193s11 24 21 53c46 142 166 362 287 527l70 95 106 108c185 189 356 313 584 422l132 63 110 35c61 19 155 45 210 56l100 21 152 12 153 11 143-11 142-11 105-21c58-12 148-35 200-52l95-30 131-62c151-73 272-150 394-252l87-72 474 475 474 474-45 40c-519 462-1114 730-1810 815l-125 15-220 4c-121 2-238 1-260-1zm207-3401l3-658 918-3 917-2-6-28c-64-291-165-501-340-713-245-296-597-494-1034-583l-125-26-167-12-166-12-149 12-148 12-100 21c-55 11-154 38-220 60l-120 39-130 64c-226 110-385 227-571 417-197 204-330 409-439 677l-42 103-549-427c-302-234-550-429-552-432-4-12 117-223 203-352 549-826 1418-1360 2420-1487l140-17h270l270 1 145 17c1098 132 1943 691 2421 1601 234 446 353 912 388 1530l9 150-9 145c-11 183-26 326-46 458l-16 102H4510l2-657z"/></g><g fill="#4285f5" transform="matrix(.1 0 0 -.1 0 900)"><path d="M4305 7894c-22-2-89-9-150-15-478-48-967-210-1380-459-240-145-417-282-619-479-258-252-455-511-621-815l-47-88 8-7c5-5 142-111 304-237 162-125 407-315 543-421 137-106 250-193 252-193s11 24 21 53c46 142 166 362 287 527l70 95 106 108c185 189 356 313 584 422l132 63 110 35c61 19 155 45 210 56l100 21 152 12 153 11 143-11 142-11 105-21c58-12 148-35 200-52l95-30 131-62c151-73 272-150 394-252l87-72 474 475 474 474-45 40c-519 462-1114 730-1810 815l-125 15-220 4c-121 2-238 1-260-1zm205-3399v-655h1840v-21c0-36-50-210-87-304-101-255-275-486-503-667-74-59-261-165-382-217-139-60-245-92-408-125l-125-26-167-12-166-12-149 12-148 12-100 21c-55 11-154 38-220 60l-120 39-130 64c-226 110-385 227-571 417-197 204-330 409-439 677l-42 103-549-427c-302-234-550-429-552-432-4-12 117-223 203-352 549-826 1418-1360 2420-1487l140-17h270l270 1 145 17c624 75 1125 269 1598 618l97 71 180 181 180 181 88 117c127 168 207 299 302 493 106 215 143 310 209 530 88 292 130 548 145 885l10 205-10 200-10 200-20 137c-10 76-22 144-25 153l-6 15H4510v-655z"/></g><g fill="#34a952" transform="matrix(.1 0 0 -.1 0 900)"><path d="M4305 7894c-22-2-89-9-150-15-478-48-967-210-1380-459-240-145-417-282-619-479-258-252-455-511-621-815l-47-88 8-7c5-5 142-111 304-237 162-125 407-315 543-421 137-106 250-193 252-193s11 24 21 53c46 142 166 362 287 527l70 95 106 108c185 189 356 313 584 422l132 63 110 35c61 19 155 45 210 56l100 21 152 12 153 11 143-11 142-11 105-21c58-12 148-35 200-52l95-30 131-62c151-73 272-150 394-252l87-72 474 475 474 474-45 40c-519 462-1114 730-1810 815l-125 15-220 4c-121 2-238 1-260-1zM2044 3434c-302-234-550-429-552-432-4-12 117-223 203-352 549-826 1418-1360 2420-1487l140-17h270l270 1 145 17c622 75 1138 274 1593 615 102 77 215 176 207 183-3 3-239 186-525 408-286 221-525 406-530 411l-11 8-84-51c-174-105-374-181-605-229l-140-29-167-12-166-12-149 12-148 12-100 21c-55 11-154 38-220 60l-120 39-130 64c-226 110-385 227-571 417-197 204-330 409-439 677l-42 103-549-427z"/></g><g fill="#2ea64e" transform="matrix(.1 0 0 -.1 0 900)"><path d="M4305 7894c-22-2-89-9-150-15-478-48-967-210-1380-459-240-145-417-282-619-479-258-252-455-511-621-815l-47-88 8-7c5-5 142-111 304-237 162-125 407-315 543-421 137-106 250-193 252-193s11 24 21 53c46 142 166 362 287 527l70 95 106 108c185 189 356 313 584 422l132 63 110 35c61 19 155 45 210 56l100 21 152 12 153 11 143-11 142-11 105-21c58-12 148-35 200-52l95-30 131-62c151-73 272-150 394-252l87-72 474 475 474 474-45 40c-519 462-1114 730-1810 815l-125 15-220 4c-121 2-238 1-260-1zM2580 3843c0-5 7-18 15-29l14-19-6 23c-3 12-9 25-14 28l-9 5v-8zm-76-65l-19-23 23 19c21 18 27 26 19 26-2 0-12-10-23-22zm116-36c0-15 130-275 135-270 2 2-28 66-66 143s-69 134-69 127zm-221-49l-14-18 18 14c9 7 17 15 17 17 0 8-8 3-21-13zm-190-144l-24-20 28 17c15 9 27 18 27 20 0 8-8 4-31-17zm-70-56l-14-18 18 14c16 13 21 21 13 21-2 0-10-8-17-17zm636-59c10-17 26-41 37-55l19-24-15 30c-8 17-25 41-37 55l-21 25 17-31zm-771-46l-19-23 23 19c21 18 27 26 19 26-2 0-12-10-23-22zm-80-60l-19-23 23 19c21 18 27 26 19 26-2 0-12-10-23-22zm935-21c17-25 37-49 43-53s-4 14-22 40c-45 62-63 73-21 13zm-1030-54l-14-18 18 14c9 7 17 15 17 17 0 8-8 3-21-13zm1119-58c22-27 57-68 77-90l36-40-10 20c-6 11-41 52-77 90l-67 70 41-50zm-1214-17l-19-23 23 19c21 18 27 26 19 26-2 0-12-10-23-22zm-115-89l-24-20 28 17c15 9 27 18 27 20 0 8-8 4-31-17zm1486-69c21-22 41-40 44-40s-13 18-34 40-41 40-44 40 13-18 34-40zm-1555 20l-15-10h12c6 0 15 5 18 10 8 12 4 12-15 0zm-45-39l-5-10 8-5 9-5v14c0 17-3 19-12 6zm1655-35c0-3 15-15 33-27l32-23-24 27c-22 24-41 35-41 23zm-1620-45c0-5 9-19 20-32l21-24-16 33c-15 31-25 41-25 23zm1691-13c2-2 18-14 34-28l30-25-24 28c-14 15-29 27-34 27-6 0-8-1-6-2zm69-52c0-2 14-14 30-26 17-12 30-19 30-16 0 2-13 14-30 26-16 12-30 19-30 16zm-1679-71c12-22 26-44 32-50 15-16-20 48-38 70l-17 20 23-40zm1749 21c0-3 15-15 33-27l32-23-14 17c-14 18-51 42-51 33zm105-71c22-18 86-53 70-38-5 6-28 20-50 32l-40 23 20-17zm2124-6l-24-20 22 10c12 6 25 16 28 21 10 16-1 12-26-11zm-3918-43c11-19 27-40 36-47l15-13-32 47c-37 55-49 63-19 13zm1899-11c0-6 96-55 107-55 10 0-43 31-79 48-16 6-28 9-28 7zm1870-25c-30-16-51-29-47-30 10 0 107 49 107 55 0 7 1 7-60-25zm-3680-94c45-62 63-73 21-13-17 25-37 49-43 53s4-14 22-40zm2025 20c28-14 64-27 80-31l30-6-60 24c-90 36-106 40-50 13zm1490 3l-40-19 25 6c28 7 80 33 65 33-5 0-28-9-50-20zm-90-29l-20-9h15c8 0 24 4 35 9l20 9h-15c-8 0-24-4-35-9zm-1217-37c7-3 16-2 19 1 4 3-2 6-13 5l-19-1 13-5zm1100 0c6-2 18-2 25 0l12 5h-50l13-5zm-1033-17c22-7 58-16 80-19l40-6-44 14c-25 8-61 17-80 20l-36 5 40-14zm935-1l-45-13h25c14 0 43 5 65 13l40 13h-20c-11 0-40-6-65-13zm-3141-33c5-9 19-26 32-37l23-20-28 38c-30 39-43 49-27 19zm3059 11c6-2 18-2 25 0l12 5h-50l13-5zm-565-20c9-2 23-2 30 0l12 5h-60l18-5zm355 0c12-2 30-2 40 0l17 5-40-1h-40l23-4zm-235-10c37-2 97-2 135 0l67 3h-270l68-3zm-2543-68c13-14 26-25 28-25 3 0-5 11-18 25s-26 25-28 25c-3 0 5-11 18-25zm55-64c50-58 56-64 60-59 3 2-17 24-43 49l-47 44 30-34zm160-171c55-55 102-100 105-100 2 0-40 45-95 100s-102 100-105 100c-2 0 40-45 95-100zm4355 6c0-2 8-10 18-17l17-14-14 18c-13 16-21 21-21 13zm-4193-156c23-24 44-42 46-40 2 3-17 23-42 44l-46 40 42-44zm4403-60l-35-31 20 10c19 9 63 51 54 51-3 0-20-14-39-30zm-4318-15c15-16 30-26 33-23 4 3-9 16-27 28l-33 23 27-28zm4232-61l-39-36 31 21c29 19 62 51 52 51-3 0-22-16-44-36zm-4174 19c0-13 29-38 35-31 3 3-4 13-15 23l-20 18v-10zm54-41c8-13 66-56 66-49 0 3-17 17-37 33-20 15-33 23-29 16zm4031-43c-22-16-44-35-50-41l-10-10 20 11c23 12 93 70 85 70-3 0-23-13-45-30zm-3938-30c12-12 24-21 27-18 2 2-8 13-22 23l-27 19 22-24zm56-37c4-5 24-20 44-32l37-22-11 14c-15 17-78 54-70 40zm3771-14c-46-34-51-41-18-25 27 14 64 47 52 47-3 0-18-10-34-22zm-3684-41c0-6 117-77 127-77 4 0-5 9-22 21-36 24-105 61-105 56zm3568-34c-32-20-56-39-54-41 4-4 116 66 116 73 0 8-2 7-62-32zm-3413-59c24-19 237-126 241-121 2 2-56 33-129 70-72 37-123 60-112 51zm3293-10c-16-8-28-17-28-19 0-10 16-4 40 15 30 23 25 25-12 4zm-88-49c-25-13-41-24-37-25 11 0 87 39 87 45 0 7 0 7-50-20zm-105-50c-22-14-36-25-32-25 11 0 87 39 87 45 0 10-16 4-55-20zm-2750-61c28-13 57-24 65-24s-12 12-45 25c-75 31-85 31-20-1zm2645 16c-8-5-55-24-103-41s-86-33-84-36c2-2 41 10 86 27 84 31 144 59 126 59-5 1-17-4-25-9zm-2530-58c8-5 26-13 40-16l25-7-15 9c-8 5-26 13-40 16l-25 7 15-9zm129-48c35-13 66-22 68-20 5 5-103 46-120 46-7-1 17-12 52-26zm2111 0l-55-25 26 5c35 7 118 45 99 44-8 0-40-11-70-24zm-1920-54c30-11 64-19 75-19h20l-60 19c-33 11-67 19-75 19-8-1 10-9 40-19zm1715 0l-60-18 20-1c11 0 45 8 75 19 72 24 43 24-35 0zm-1607-27c6-2 18-2 25 0l12 5h-50l13-5zm1510 0c7-3 16-2 19 1 4 3-2 6-13 5l-19-1 13-5zm-1460-10c7-3 16-2 19 1 4 3-2 6-13 5l-19-1 13-5zm1410 0c6-2 18-2 25 0l12 5h-50l13-5zm-1344-13c15-5 103-19 195-32l166-23 290 2 290 1 90 16 90 15-55-4c-30-3-129-10-220-16l-165-11-165 6c-155 6-328 23-465 46-71 12-91 12-51 0zm1211-5l-70-14 63 6c35 3 76 9 90 13l27 8h-20c-11 0-51-6-90-13z"/></g><g fill="#eb4234" transform="matrix(.1 0 0 -.1 0 900)"><path d="M4305 7894c-22-2-89-9-150-15-478-48-967-210-1380-459-240-145-417-282-619-479-258-252-455-511-621-815l-47-88 8-7c5-5 142-111 304-237 162-125 407-315 543-421 137-106 250-193 252-193s11 24 21 53c46 142 166 362 287 527l70 95 106 108c185 189 356 313 584 422l132 63 110 35c61 19 155 45 210 56l100 21 152 12 153 11 143-11 142-11 105-21c58-12 148-35 200-52l95-30 131-62c151-73 272-150 394-252l87-72 474 475 474 474-45 40c-519 462-1114 730-1810 815l-125 15-220 4c-121 2-238 1-260-1z"/></g></g></svg>