<?xml version="1.0"?><svg version="1.2" baseProfile="tiny-ps" viewBox="0 0 468 468" xmlns="http://www.w3.org/2000/svg" xmlns:xlink="http://www.w3.org/1999/xlink"><title>whatsapp</title><g><g fill="#fff" transform="matrix(.1 0 0 -.1 0 468)"><path d="M0 2340V0h4680v4680H0V2340z"/></g><g fill="#eaeaea" transform="matrix(.1 0 0 -.1 0 468)"><path d="M2055 4601c-187-27-274-47-440-103-104-35-335-143-401-187-25-17-47-31-50-31-8 0-133-89-209-149-86-67-276-256-333-331-81-105-162-231-213-328-28-53-55-104-59-112-14-24-66-158-93-240-53-157-82-287-101-450-18-157-19-225-6-430l11-165 20-100c21-103 71-283 96-345 38-93 52-123 101-223l53-108-14-47c-9-26-32-110-52-187s-46-169-56-205c-11-36-24-83-29-105-8-36-25-100-90-340-12-44-28-102-36-130-18-64-28-125-21-125 4 0 102 25 219 56 117 30 272 71 343 89 72 19 182 48 245 65 63 16 169 44 236 61l120 31 75-35c260-122 454-178 731-212l126-15h247l150 19c364 47 654 155 955 355 570 378 924 990 971 1675l10 155-10 159c-11 170-19 222-58 382-13 55-27 111-30 125-2 14-11 39-19 57-8 17-14 35-14 41 0 5-9 31-21 58-11 27-24 58-28 69-27 68-133 264-184 340-221 329-502 577-857 755-209 105-414 170-645 205-22 3-56 8-75 11s-125 7-235 9l-200 4-130-18zm555-421c149-31 240-53 295-72 350-117 649-331 876-628 195-253 308-533 359-887 18-121 19-202 4-353-16-154-32-230-81-385l-34-110-61-125-60-125-64-92c-87-127-84-123-224-263-145-145-156-155-271-232-237-158-496-257-769-293l-114-15h-115l-116 1-105 14c-254 34-447 99-674 227l-89 50-31-5c-32-5-117-26-589-151-26-7-47-11-47-9 0 3 38 145 85 317 47 171 85 317 85 325s-15 37-34 65c-19 29-62 108-96 176l-61 124-34 106c-42 130-61 213-80 348l-15 105v222l20 125c27 172 34 200 75 320 92 268 245 512 444 710 96 95 151 140 274 224l98 67 114 54 113 55 119 39 119 39 109 21c150 28 176 29 360 26l160-4 55-11zm-1115-753c-50-20-82-46-135-110l-51-62-34-70-34-70-15-84c-20-103-20-165-1-261 18-95 42-165 90-259 33-66 81-147 95-161 3-3 22-30 42-60 159-235 448-521 683-674 199-130 551-266 727-281l67-6 86 11 86 11 52 20c79 31 156 82 218 143l56 55 23 73 24 73 4 90 4 90-24 21c-12 11-39 27-58 34-19 8-51 24-70 37s-38 23-43 23c-4 0-47 19-95 42s-114 54-147 70l-60 28-54 7-53 6-40-44c-53-60-58-67-58-77 0-5-12-19-26-33-15-13-44-47-65-76l-39-52-20-6-20-6-113 54c-259 124-433 277-602 528-36 53-65 103-65 112v16l65 73c35 40 76 95 91 121l26 48-5 47-4 47-92 219c-50 121-101 234-112 253l-20 32-37 11-37 10-90-1-90-1-30-11z"/></g><g fill="#cdcdcd" transform="matrix(.1 0 0 -.1 0 468)"><path d="M2109 4606c-2-2-29-6-59-10-196-20-477-104-675-203-83-42-216-116-240-134-5-5-59-45-120-90l-110-81-106-107c-129-130-199-212-277-328-184-275-276-505-352-885-6-32-15-124-20-205l-9-148 5-110c7-139 29-291 61-424 46-191 83-291 186-498l40-82-52-193c-29-106-70-256-91-333s-66-243-101-368l-62-228 9-8 9-8 375 99c206 54 463 121 570 149s196 52 198 54 50-19 106-46c357-168 738-238 1131-208l120 9 135 26 135 25 134 45 135 45 132 65 132 64 126 84c523 349 854 867 955 1491l19 120 6 125 6 125-9 125c-5 69-16 168-25 220-14 91-66 305-85 352-5 13-26 66-47 118-187 475-572 894-1039 1128-233 117-429 178-694 217l-105 15h-221c-122 0-224-2-226-4zm546-431l137-25 121-41c270-90 506-237 707-439 301-303 477-673 526-1109l15-136-6-105c-6-109-11-140-44-301-23-107-80-273-135-394-32-68-113-208-139-240-4-5-31-41-59-80-48-65-205-229-273-286-296-244-655-390-1031-417l-119-9-117 8c-287 20-571 107-802 247-37 23-73 42-79 42-11 0-260-64-531-137-70-19-129-33-131-31-1 2 35 140 81 308 47 168 85 316 86 330l1 25-36 57c-98 153-188 367-232 555l-25 104-15 151-16 151 16 153 15 153 20 78c11 43 34 122 52 176l31 98 61 122c269 538 749 896 1336 997l105 18 172 1 172 1 136-25zm-1160-752l-40-17-44-40c-83-77-144-184-175-306l-16-62v-203l20-80 20-80 54-110 53-110 61-85c309-434 643-720 1019-871 122-49 242-89 316-104l68-15h194l45 10c144 33 325 156 364 250 19 47 46 180 46 229 0 22-5 50-11 63l-10 23-82 42c-163 83-377 182-417 193l-42 11-26-6-27-6-68-88c-37-48-90-112-117-141l-49-53-28 8c-57 14-221 99-318 166l-100 68-93 93-93 93-73 102c-40 56-81 118-91 137l-18 34 60 68c34 38 75 91 92 118l31 50v104l-54 129c-29 70-70 171-91 223s-49 109-62 127l-23 32-38 11-37 10-80-1h-80l-40-16z"/></g><g fill="#aaa" transform="matrix(.1 0 0 -.1 0 468)"><path d="M2095 4599c-483-50-949-273-1301-624-93-92-134-140-241-280-17-21-97-149-120-188-175-312-269-643-287-1003l-5-111 14-164c28-317 90-542 224-809l57-115-153-564c-84-310-151-566-148-570 3-3 38 3 78 13 83 21 671 175 919 241l166 44 59-30c155-81 408-165 600-200l118-22 228-4 228-5 117 17c575 83 1073 366 1426 810 289 364 436 747 476 1245l12 145-16 166-16 166-24 114c-32 154-48 207-96 335-292 767-1003 1313-1814 1393l-109 11-156-1c-86-1-192-5-236-10zm455-404c138-19 223-38 350-77l95-30 130-63c601-291 984-864 1030-1540l6-90-10-125c-74-897-776-1597-1675-1670l-126-11-126 11c-288 23-570 113-805 255l-60 37-167-45C810 745 700 717 695 722c-3 3 26 122 66 264 95 346 99 362 99 381 0 9-20 48-44 87-109 177-191 380-231 571-6 33-15 69-18 80s-11 83-17 161l-11 141 10 124c26 319 130 613 309 874 300 436 730 704 1257 785l120 18 100 1 101 1 114-15zm-1076-786l-42-20-50-58c-61-69-114-164-139-246l-18-60 1-135 1-135 31-92c41-119 75-187 157-308 146-215 284-372 480-547 206-184 406-298 705-403 180-63 305-78 450-54l65 10 70 32 70 32 55 44c107 87 127 119 155 260l17 85-5 38c-3 21-11 46-18 55-8 8-92 53-189 100-96 46-191 92-210 102-19 11-60 27-90 36l-55 17-27-11-27-10-48-62c-26-34-76-95-111-135l-63-74h-20c-31 0-220 93-312 153-110 73-224 172-297 260-76 90-190 259-190 280v16l61 68c33 37 74 91 90 118l29 50v84l-99 237-98 236-27 29-28 29h-233l-41-21z"/></g><g fill="#828282" transform="matrix(.1 0 0 -.1 0 468)"><path d="M2140 4604c-253-22-550-108-789-229-320-160-615-421-831-733-145-209-289-554-330-792-6-36-13-76-16-90-2-14-9-72-15-130l-11-105 5-185 5-185 16-95c24-134 50-241 92-366l36-109 68-142 68-142-29-108c-53-195-86-315-143-523-30-113-73-269-94-348l-39-143 8-5c9-5 28 0 721 182l437 115 70-36c211-106 458-179 703-210l122-15h141c503 0 938 142 1336 436l104 77 131 131 130 131 60 80c98 130 161 231 233 380 97 197 158 389 197 614l15 86 6 195 5 195-11 109c-48 468-247 915-555 1244-213 229-392 365-647 493-193 97-384 160-604 199l-120 21-215 4c-118 1-235 1-260-1zm534-424c313-61 596-198 851-413l100-84 76-89c236-277 365-544 429-891l19-102 7-153 6-153-16-110c-81-549-356-992-799-1288-258-172-538-269-865-299l-132-12-129 12c-296 26-547 106-806 255l-60 35-205-54c-113-29-255-67-316-84-61-16-119-30-128-30h-16v12c0 6 22 91 49 187 27 97 66 238 86 313l38 137-56 93c-140 237-215 449-251 718l-16 114v221l15 110c24 167 64 319 116 432 10 24 19 46 19 50 0 3 21 47 46 97 65 128 158 265 255 377l84 97 95 82c281 243 619 394 980 439l75 10 170-4 170-4 109-21zm-1194-769c-43-23-128-112-169-176-17-26-43-84-58-129l-27-81v-250l28-90 28-90 49-95 48-95 76-105c250-346 519-594 815-753 143-77 404-173 538-198l64-12 93 6 94 6 63 21c35 12 92 39 128 60l65 39 52 53 52 53 16 45c9 25 23 77 31 115l15 70-6 47-7 47-11 10c-38 31-434 218-501 236l-48 14-22-9-22-8-44-58c-65-86-160-198-177-208l-15-8-29 6c-64 12-308 147-392 215-113 92-239 232-326 363l-61 91v39l65 74 65 75 25 49 25 49v68l-41 94c-23 52-59 139-81 194s-53 128-70 161l-30 61-24 12-25 11h-107l-107-1-35-18z"/></g><g fill="#5b5b5b" transform="matrix(.1 0 0 -.1 0 468)"><path d="M2125 4600c-33-5-94-14-135-20-223-31-526-138-740-260-285-164-552-415-734-690l-75-112-65-132-65-131-44-135c-42-125-65-217-98-395l-14-70 1-220 1-220 12-100c7-55 16-116 21-135s21-82 35-139c33-132 91-287 161-427l55-110-120-440C154 248 136 180 141 175c3-2 263 63 579 146l574 150 86-40c206-95 395-156 608-193l127-23h235l235 1 130 23c405 73 757 236 1055 488 429 365 691 851 766 1421l17 134-6 196-6 197-19 105c-39 204-59 278-119 435-161 415-455 778-838 1034l-108 72-131 64c-152 75-292 125-461 165-107 25-145 32-260 47-16 2-118 6-225 8l-195 4-60-9zm495-410c287-48 503-133 733-288 435-292 712-741 793-1282l14-95-4-170-4-170-16-85c-78-425-300-810-621-1078-113-95-242-180-367-243l-97-49-134-45-134-44-119-23-119-22h-200l-200 1-133 27-134 27-116 41c-117 41-282 118-353 165l-38 25-33-4c-18-3-123-29-233-58-362-96-419-110-421-107-2 2 37 150 87 330l90 328-45 72c-109 174-198 398-243 610l-26 122-1 190c-1 191 4 264 24 365 6 30 14 66 16 80 3 13 23 80 45 147l40 122 57 113c144 284 349 520 607 701l100 69 130 64c185 89 338 138 539 169l81 13 160 1 160 1 115-20zm-1124-774l-39-15-34-33c-48-45-105-123-137-187l-27-53-19-86c-24-105-25-163-5-265 36-189 106-326 294-572 255-336 558-583 881-722 185-79 340-126 454-138l56-6 93 11 92 11 91 44 92 44 56 52 57 52 18 36c10 20 26 66 35 102l16 65v130l-12 17c-11 14-177 97-412 207-76 35-122 46-159 36l-24-6-51-67c-68-92-100-131-143-175l-36-37-24 6c-49 11-232 104-317 160l-87 58-115 115c-130 130-131 131-211 251l-59 88v25c0 14 5 28 10 31 14 9 115 136 139 176l21 34v104l-90 217c-49 119-90 219-90 223s-13 22-29 41l-28 35-109 2-109 3-39-14z"/></g><g fill="#373737" transform="matrix(.1 0 0 -.1 0 468)"><path d="M2090 4594c-14-2-56-9-95-15-453-70-870-284-1200-614-183-182-302-349-416-580l-68-140-39-115c-51-150-81-276-101-431l-17-126 2-180 2-179 17-115c36-250 93-433 212-681l57-118-68-247C192 386 137 180 142 175c2-2 20 0 39 6 18 5 171 45 339 89 403 106 513 134 648 170 62 17 119 30 127 30 9 0 55-20 103-44 186-93 427-163 676-196l148-20h253l150 20c278 36 486 100 727 222 337 170 619 424 831 745 153 232 246 448 312 728 9 39 18 79 20 90 20 121 27 196 32 346l5 175-16 130c-22 171-57 332-96 444-88 249-184 431-345 645l-59 80-131 130-130 131-80 59c-138 104-180 129-355 219-188 95-369 157-575 197l-110 21-270 3c-148 2-281 2-295-1zm600-413c257-56 441-131 645-263 218-140 429-362 572-598 107-178 202-438 228-625 4-27 10-59 12-70 3-11 7-88 10-171l5-152-12-102c-39-340-179-674-388-930-303-370-720-605-1179-665l-114-15h-117c-313 0-616 80-895 236l-102 56-140-36c-77-20-227-59-334-87-106-27-195-48-198-45-5 4 7 48 121 456l55 195-59 100c-149 252-223 480-256 783l-16 154 17 159 17 159 23 92c58 236 168 466 324 678l55 75 110 111c274 273 578 435 951 508 126 24 128 24 355 21l215-3 95-21zm-1208-777l-52-26-55-66-56-67-29-60c-16-33-37-89-46-125l-16-65 5-130 5-130 25-72c83-236 292-526 573-794 242-230 476-366 829-479l100-32 85-6 85-7 77 7 77 7 63 26c80 33 161 86 218 145l46 46 23 69 24 70 5 83 5 83-18 19c-27 30-451 235-510 246l-33 6-22-7-21-7-76-96c-42-52-95-115-118-139l-42-43h-14c-8 0-77 31-154 69l-140 68-81 61c-122 92-180 148-264 253-76 95-170 237-170 256 0 5 27 41 61 79s74 92 90 119l29 50v94l-26 58c-14 32-55 130-91 218-35 88-74 174-85 192l-19 32-37 11-37 10h-161l-52-26z"/></g><g fill="#1b1b1b" transform="matrix(.1 0 0 -.1 0 468)"><path d="M2090 4589c-367-37-757-193-1072-430l-83-62-145-146-146-146-71-100c-253-356-382-721-413-1165l-9-135 15-175 15-175 25-115c43-193 130-432 211-577 19-35 32-66 29-71-4-7-186-670-274-999l-30-113h16c10 0 33 5 52 10 19 6 148 40 285 75 138 36 300 78 360 94 61 16 182 48 270 71l159 41 21-4c11-3 72-29 135-57 201-92 418-153 635-180l90-11 185-1 185-1 90 12c453 59 828 230 1191 543l94 81 76 88c41 49 92 110 113 136 39 50 151 218 151 227 0 3 15 31 34 63 91 155 165 368 230 655l16 68 10 160 11 160-10 155-11 156-21 107c-28 145-63 267-108 381-136 342-294 569-580 834-318 296-744 490-1189 542l-127 15-165-1c-91-1-203-6-250-10zm465-385c381-50 672-178 977-432l96-81 94-113c154-185 242-334 328-553 30-75 45-133 86-315 3-13 11-76 19-140l13-115-4-95c-10-230-41-391-111-580-94-253-217-444-412-643-276-282-587-448-981-524l-95-18h-430l-94 18c-232 45-440 123-624 234l-59 35-141-37C713 712 690 706 684 713c-4 3 32 148 80 322 47 173 86 322 86 330s-15 38-34 67c-124 195-218 445-262 703l-17 100v340l12 70c32 178 46 229 110 402 83 226 231 451 418 638 333 332 793 527 1258 534l101 1 119-16zm-1052-790l-43-16-63-68-63-69-32-58-31-59-22-79-21-79 4-116 5-115 31-92c17-51 43-116 58-145 28-56 161-261 192-293 9-11 28-35 42-54 61-87 306-336 415-422 206-163 412-268 720-367l80-26h145l145-1 40 14c109 37 172 75 253 153l53 51 13 32c20 48 46 168 46 214 0 22-4 51-10 66l-10 26-172 83c-251 121-299 143-336 149l-32 7-24-10-24-9-48-64c-65-85-124-156-153-184l-24-23h-42l-140 70c-77 39-153 80-169 93-15 12-69 56-119 97l-91 75-67 77c-79 93-185 245-194 280l-6 25 71 83c39 45 79 99 90 121l20 38v82l-40 97c-23 53-45 106-50 117s-26 61-46 110c-20 50-45 108-56 131l-20 40-21 14-22 13-95 3-95 4-42-16z"/></g><g fill="#010101" transform="matrix(.1 0 0 -.1 0 468)"><path d="M2060 4580c-506-73-913-273-1256-615-333-332-533-721-615-1195l-20-115-5-120-4-120 10-161 10-162 20-98c47-230 109-410 201-590l50-98-151-559c-84-307-150-561-147-563 3-3 74 13 158 36 291 77 335 88 554 145 121 31 268 70 328 85l107 29 116-56c189-90 401-153 632-188l104-16h386l133 20c159 24 224 39 384 92l120 40 130 63 130 63 104 68c308 202 525 430 711 745 165 281 259 593 290 965l11 130-11 150-10 150-20 105c-96 503-325 908-704 1243-332 294-739 476-1190 533-22 3-129 7-236 9l-195 4-125-19zm560-380c165-34 203-44 290-72 52-17 146-55 209-84l114-54 111-74 111-74 100-89c177-159 323-352 425-559l51-103 38-118c39-118 76-279 85-364 2-24 7-84 11-134l7-90-11-121c-46-554-323-1035-781-1356-156-109-346-199-533-253-128-37-232-54-367-64l-125-8-130 8c-282 19-532 95-785 239l-85 49-95-25C747 719 676 701 673 703c-1 2 5 27 13 57s25 93 38 140 33 121 46 165c12 44 28 103 35 130 7 28 21 78 30 113l17 63-51 84c-135 220-219 456-256 723l-15 105v121c0 67 4 148 10 181 5 33 12 80 15 105 11 78 35 169 70 269 49 141 64 177 113 271 267 511 762 873 1322 964 148 24 155 24 335 21l170-4 55-11zm-1139-802l-43-21-55-66-54-66-34-70-33-70-16-79c-20-98-20-150-1-251 27-138 68-239 153-370 43-67 150-214 163-225 3-3 10-12 15-22 14-25 160-183 254-274 182-176 377-308 588-398 120-52 309-113 388-127l68-12 102 7 103 7 70 29c86 35 162 85 219 142l42 44 20 55c20 58 26 84 36 160l6 47-11 33-11 34-97 49c-115 57-235 115-316 152l-58 27-48 5-48 4-52-63c-28-35-81-99-117-141l-66-78h-59l-104 49c-58 27-144 76-192 108l-87 58-99 95c-105 100-153 158-242 291l-55 81v41l38 42c76 85 96 111 119 156l23 47v31c0 17-8 52-19 78-33 85-91 227-101 248-5 11-17 40-28 65-10 25-27 64-37 88l-19 43-24 20-25 19h-212l-44-22z"/></g></g></svg>